REM MD5 c2d43ad8595a487f6cd985933a3da3e8
FILE "Euro Demo Germany 01-02 (Germany).bin" BINARY
  TRACK 01 MODE2/2352
    INDEX 01 00:00:00
  TRACK 02 AUDIO
    INDEX 00 63:41:74
    INDEX 01 63:43:74
  TRACK 03 AUDIO
    INDEX 00 65:02:53
    INDEX 01 65:04:53
  TRACK 04 AUDIO
    INDEX 00 67:16:36
    INDEX 01 67:18:36
REM LEADOUT 70:19:68
